PathFileType	4	(X/Y/Z)	4_coords_data.trc
DataRate	CameraRate	NumFrames	NumMarkers	Units	OrigDataRate	OrigDataStartFrame	OrigNumFrames
30.0	30.0	8	21	m	30.0	1	57
Frame#	Time	THUMB_TIP	THUMB_IP	THUMB_MCP	THUMB_CMC	INDEX_TIP	INDEX_DIP	INDEX_PIP	INDEX_MCP	MIDDLE_TIP	MIDDLE_DIP	MIDDLE_PIP	MIDDLE_MCP	RING_TIP	RING_DIP	RING_PIP	RING_MCP	PINKY_TIP	PINKY_DIP	PINKY_PIP	PINKY_MCP	WRIST
X1	Y1	Z1	X2	Y2	Z2	X3	Y3	Z3	X4	Y4	Z4	X5	Y5	Z5	X6	Y6	Z6	X7	Y7	Z7	X8	Y8	Z8	X9	Y9	Z9	X10	Y10	Z10	X11	Y11	Z11	X12	Y12	Z12	X13	Y13	Z13	X14	Y14	Z14	X15	Y15	Z15	X16	Y16	Z16	X17	Y17	Z17	X18	Y18	Z18	X19	Y19	Z19	X20	Y20	Z20	X21	Y21	Z21
0	-2.749317978547796e-18	0.5295977139747616	-0.007844650756684945	-0.10312785046798473	0.5106345533357405	-0.010518409142689644	-0.11582625803239802	0.47987566493957845	-0.014474379004753124	-0.11848352864016341	0.4785757252373627	-0.02587996472829046	-0.07537769642370293	0.5210815437042023	0.008786622724176962	-0.11560212889191489	0.5094309326508131	-0.005078282683990687	-0.11576844216622936	0.5232820207049129	0.014287690637145856	-0.12383790745474801	0.4898906549785249	0.034843654347322506	-0.10722149554144639	0.5029650678361522	-0.019550330015551842	-0.10920382920328767	0.5142074607179046	-0.01093187563392628	-0.09791973214751201	0.5346053595809588	0.009025208370995297	-0.10384004210503225	0.5044593607798817	0.037361012109462965	-0.08697442904826767	0.5266302934287678	-0.0012833065073196703	-0.08998790537224441	0.5169147828210174	-0.012194874313178894	-0.07942634575025526	0.5390433214442962	-0.0017070351336969658	-0.08395547223815447	0.5196959003102722	0.0302895926592065	-0.06857321169735206	0.5069987777632452	-0.01393089191944552	-0.06217681437005028	0.5220191382123206	-0.020784997846614583	-0.0666945576030148	0.5402531906039468	-0.010436137570215442	-0.06558440294757084	0.5242423021096606	0.01706663511182993	-0.04860993990972279	0.4622830810018609	-0.023011742144276925	-0.051989820119430985
1	0.03333333333333339	0.5306481109026996	-0.008619479591465473	-0.10207526252335697	0.5121461753150948	-0.011248901563640112	-0.11544554747186778	0.48142918271181445	-0.015161786246442599	-0.11860398044869529	0.4784583828568252	-0.026024905403648546	-0.07544083655951661	0.5213246866744403	0.007883991325031037	-0.11476569071261747	0.5098453555919205	-0.006120543136636458	-0.11507869615963169	0.5241767106412349	0.012990527548743303	-0.12291381407252289	0.4909193126639986	0.03441393491388889	-0.10714615125742118	0.4998628240791724	-0.020180546761385365	-0.10441678360917961	0.514217912220946	-0.011722721483541032	-0.0973177247975224	0.5352692098947012	0.007618545344263983	-0.10298939243117308	0.5053498972348954	0.036703155350457095	-0.08701854048919971	0.5266560802729063	-0.0025397154727542226	-0.09012994650700326	0.5167829758405711	-0.012710387069506224	-0.07899086000319924	0.5393585314906838	-0.003175232480659873	-0.08341862389205731	0.5205272004860589	0.029379151854982077	-0.06857565023036899	0.5060756323376262	-0.015370325529868833	-0.06115677031889079	0.5211889877731464	-0.02175256676483428	-0.06604077321593504	0.539888755150218	-0.012235854168409221	-0.06529050632978362	0.5249232786811519	0.015988307261718515	-0.04854790567696035	0.462283081001861	-0.023011742144276925	-0.051989820119430985
2	0.06666666666666676	0.5314358808287531	-0.00938905926727307	-0.10116187117033232	0.5133331217021566	-0.011944284435243424	-0.11508167491698759	0.4826492470040329	-0.01575960105205998	-0.11865423599040281	0.478359087044379	-0.02616859526940618	-0.07549016103328325	0.5211979627263259	0.007343448190228141	-0.1138387986472029	0.5101786416769591	-0.007012536687358462	-0.11453180788630268	0.5248914775180255	0.011881274902646455	-0.12218466213261034	0.49178156102379167	0.034016202602715095	-0.10710439358534635	0.4985701160355882	-0.02040881011197848	-0.10121269217086545	0.5142101460906732	-0.012385696075093544	-0.09685160273963664	0.535803339981539	0.006410344889351771	-0.10231533513190953	0.5061144338479621	0.03611379060100006	-0.08706993955006796	0.5267450143204773	-0.003895076889459226	-0.09035558595182644	0.5166936782597024	-0.013235875172735723	-0.0786628475717674	0.5395957585591388	-0.004471473303207518	-0.08300565275132374	0.5212496733837405	0.028555214525924688	-0.06860496235905149	0.5053872069999399	-0.016595121210061792	-0.06032338415277212	0.5205464326329285	-0.022591829269369312	-0.06554232759561325	0.53959808449597	-0.013781500914313294	-0.06506830801208695	0.5255185260643308	0.015014092110188115	-0.048531581983717736	0.4622830810018609	-0.023011742144276925	-0.051989820119430985
3	0.10000000000000014	0.5319900276819604	-0.01012986076052047	-0.1004024618479395	0.514218588577102	-0.012587219153648355	-0.11475994567589598	0.4835580887631582	-0.016260307813852015	-0.118666628521155	0.4782774878906625	-0.026307788602594195	-0.0755267005631107	0.5184777154776513	0.008213042342768095	-0.11127540596836367	0.5104330711323388	-0.007760436749026378	-0.11412701306988407	0.5254561852568649	0.010945696493558588	-0.12163677033041685	0.49249512183382116	0.03365361383175769	-0.10709184399221872	0.4980198258333145	-0.020602234481784443	-0.09927497521872258	0.5141957992438987	-0.01294006954949889	-0.09651289035932253	0.5362294502799408	0.005387014604899543	-0.10180871498061723	0.5067644767662882	0.03559269642077634	-0.0871260707065854	0.5268687507006844	-0.005247323976881768	-0.0905912637979429	0.5166271885984638	-0.013750523360010036	-0.07843371445783612	0.5397688894017736	-0.005603118340412272	-0.08270705675359559	0.5218720295933814	0.027818163340351254	-0.06865568052869059	0.5048961386246075	-0.017613321881771227	-0.05967559723443106	0.5200604985688912	-0.023328510053175044	-0.06518729494436085	0.539375517213362	-0.01510248923198676	-0.06491406388257215	0.526035819329822	0.01414230114893078	-0.04855319144397417	0.462283081001861	-0.023011742144276925	-0.051989820119430985
4	0.13333333333333353	0.5323437593456652	-0.010824734592768448	-0.09980007844608986	0.5148345708652098	-0.01316666567233915	-0.11449510065003457	0.4841878237906668	-0.016662739253121894	-0.11866335727202199	0.47821267127752387	-0.026439462061104146	-0.07555183626451678	0.4959275617691019	-0.018570510831727005	-0.11098142935614852	0.510616204863784	-0.008373166057941694	-0.11385508967038244	0.5258961810569014	0.010169158875509843	-0.12125200433800339	0.4930770012621999	0.033328383172383624	-0.10710322836373082	0.4977726135568954	-0.020825514757096708	-0.09819189312315044	0.5141820477304672	-0.013401823270911106	-0.09628945394642344	0.5365660123114818	0.0045337644209135775	-0.10145495235265287	0.5073114165124566	0.035138557150914296	-0.08718389045840841	0.5270087249701398	-0.006473503946988979	-0.09077444811298606	0.5165725454734038	-0.014238885880935581	-0.07829306193468673	0.539890227410195	-0.006578912512326562	-0.08251094008451956	0.5224030212248508	0.027166945668572362	-0.0687219767635906	0.5045662108127588	-0.01843483328478812	-0.0592049616810171	0.5197035170698434	-0.023979138710990222	-0.06496018857664962	0.539213833819927	-0.016224118209375638	-0.06482156559534145	0.5264824249608944	0.013369997352282392	-0.04860481488543117	0.4622830810018608	-0.023011742144276925	-0.051989820119430985
5	0.1666666666666669	0.5325315896255471	-0.011461554462262158	-0.09934818408820034	0.5152180765263087	-0.013676390914834191	-0.11429264003851364	0.48457635519612297	-0.016970541176696496	-0.11865767016160786	0.47816324644526087	-0.026560890944791526	-0.07556721614363283	0.49732181393356256	-0.020942382758307843	-0.1122678623749046	0.5107378653586091	-0.008861188312163315	-0.11370114703433301	0.526233076476134	0.009537237732428872	-0.12100910054437959	0.4935435782361485	0.033042009467931566	-0.10713255542392894	0.4976657132421438	-0.021074762422679028	-0.09770128207242007	0.5141728533007078	-0.013783763641096458	-0.09616646486704619	0.5368286166173666	0.0038353034453011414	-0.10123543059434759	0.5077664728842709	0.0347491517960391	-0.08723994193605274	0.5271532613001961	-0.007470136624632584	-0.09087389304002169	0.5165242656428424	-0.014690119058186957	-0.0782288819694403	0.5399706062937072	-0.00740855253916628	-0.08240355298793836	0.5228513298263977	0.02659928551971613	-0.06879773960553986	0.5043645946426912	-0.019074933942581196	-0.05889673103605571	0.5194515606479458	-0.024553926926091374	-0.06484350265122095	0.5391050910642956	-0.0171683266353293	-0.06478292609872002	0.526865090977719	0.012693212271147947	-0.04867844402019422	0.4622830810018609	-0.023011742144276925	-0.051989820119430985
6	0.20000000000000023	0.5325878485869662	-0.012031915536777626	-0.09903318912097356	0.5154087460854726	-0.01411362258514759	-0.11415089175754971	0.48476471928893883	-0.017190803036213564	-0.11865584260799153	0.47812744740801516	-0.026669688977465023	-0.07557467104440187	0.4975888750641251	-0.02155446848641418	-0.11242821212103354	0.510808811899969	-0.009235823170236857	-0.11364650914168281	0.5264855635115447	0.009035974912006806	-0.12088465025323003	0.4939107125363015	0.03279545795094818	-0.10717326288130646	0.4976388608055924	-0.021335979823266404	-0.09764500592962778	0.5141700199430118	-0.014096021718527418	-0.09612718373485814	0.5370304693198513	0.0032762113097981604	-0.10112867590205415	0.5081406716638917	0.03442152054142966	-0.08729042365461503	0.5272930667736463	-0.00818956816967431	-0.09089161799674073	0.5164802209890776	-0.015096964358194631	-0.0782278806363107	0.5400195605656226	-0.008102377270281402	-0.08236976701448509	0.5232254937592009	0.02611188394061037	-0.06887663973077818	0.504262577918344	-0.01955477522107285	-0.05873090053099334	0.519284056490554	-0.025058864664709746	-0.06481860789099989	0.5390410365125002	-0.017954437168910098	-0.06478912282124816	0.5271900654656315	0.012107134046353996	-0.04876601849293885	0.4622830810018609	-0.023011742144276925	-0.051989820119430985
7	0.23333333333333361	0.5325461542146028	-0.012530021688474835	-0.09883685161096566	0.5154475243800752	-0.014477943926635928	-0.11406322533342102	0.48479552957430483	-0.017332939022838723	-0.11865933427770041	0.4781032357944722	-0.026763813033083728	-0.07557613779267511	0.49750418748193737	-0.021693088824312867	-0.11236782851517153	0.5108402373542729	-0.009508913660191465	-0.11366999953795898	0.526670178213358	0.00865191462013859	-0.12085380922156203	0.49419385733987276	0.03258930337884813	-0.10721833724818196	0.49767105485000485	-0.021595087375914757	-0.09791800260423461	0.5141740225511298	-0.014346717115357732	-0.09615358042643837	0.5371829316019141	0.002841085589173842	-0.10111131100431789	0.508444843234523	0.034152108554648786	-0.08733125153987738	0.5274192235271349	-0.008646034347193687	-0.09084976264008505	0.5164402753886609	-0.015454763226265933	-0.0782758249583567	0.54004552078241	-0.00867115633251736	-0.08239347555207913	0.5235338662639518	0.02570060224678783	-0.06895218427374415	0.5042351434001693	-0.01989979943311415	-0.05868323105384478	0.5191830564562352	-0.025497168320023467	-0.06486622036421491	0.539013269796289	-0.018599823035976737	-0.06483036062930723	0.5274631334972671	0.011606266792409725	-0.0488594514581466	0.462283081001861	-0.023011742144276925	-0.051989820119430985
